<svg width="94" height="71" viewBox="0 0 94 71" fill="none" xmlns="http://www.w3.org/2000/svg">
<!-- SONARQUBE CLOUD QUALITY GATE PASS -->
  <g clip-path="url(#clip0_2186_895)">
<path d="M88.7038 71H5.29616C2.41722 71 0 68.5965 0 65.6128V5.38716C0 2.45875 2.3629 0 5.29616 0H88.7038C91.5828 0 94 2.4035 94 5.38716V65.6128C94 68.5965 91.5828 71 88.7038 71Z" fill="white"/>
<path d="M78.6811 17.9599C78.0504 17.9599 77.5064 17.8207 77.049 17.5422C76.5944 17.261 76.2436 16.8689 75.9964 16.3661C75.7521 15.8604 75.6299 15.2724 75.6299 14.6019C75.6299 13.9314 75.7521 13.3405 75.9964 12.8292C76.2436 12.315 76.5873 11.9144 77.0277 11.6275C77.4708 11.3377 77.9879 11.1928 78.5788 11.1928C78.9197 11.1928 79.2564 11.2496 79.5887 11.3633C79.9211 11.4769 80.2237 11.6616 80.4964 11.9172C80.7691 12.1701 80.9865 12.5053 81.1484 12.9229C81.3103 13.3405 81.3913 13.8547 81.3913 14.4655V14.8917H76.3459V14.0224H80.3686C80.3686 13.653 80.2947 13.3235 80.147 13.0337C80.0021 12.7439 79.7947 12.5153 79.5248 12.3476C79.2578 12.18 78.9424 12.0962 78.5788 12.0962C78.1782 12.0962 77.8316 12.1957 77.539 12.3945C77.2493 12.5905 77.0262 12.8462 76.87 13.1616C76.7137 13.4769 76.6356 13.815 76.6356 14.1758V14.7553C76.6356 15.2496 76.7209 15.6687 76.8913 16.0124C77.0646 16.3533 77.3047 16.6133 77.6115 16.7922C77.9183 16.9684 78.2748 17.0564 78.6811 17.0564C78.9453 17.0564 79.1839 17.0195 79.397 16.9457C79.6129 16.8689 79.799 16.7553 79.9552 16.6047C80.1115 16.4513 80.2322 16.261 80.3174 16.0337L81.289 16.3064C81.1868 16.636 81.0149 16.9258 80.7734 17.1758C80.5319 17.4229 80.2336 17.6161 79.8785 17.7553C79.5234 17.8917 79.1243 17.9599 78.6811 17.9599Z" fill="#3E4357"/>
<path d="M74.4943 11.278V12.1303H71.1023V11.278H74.4943ZM72.0909 9.70984H73.0966V15.9485C73.0966 16.2326 73.1378 16.4456 73.2202 16.5877C73.3054 16.7269 73.4134 16.8206 73.5441 16.8689C73.6776 16.9144 73.8182 16.9371 73.9659 16.9371C74.0767 16.9371 74.1676 16.9314 74.2387 16.9201C74.3097 16.9059 74.3665 16.8945 74.4091 16.886L74.6137 17.7894C74.5455 17.815 74.4503 17.8405 74.3281 17.8661C74.206 17.8945 74.0512 17.9087 73.8637 17.9087C73.5796 17.9087 73.3012 17.8476 73.0284 17.7255C72.7585 17.6033 72.5341 17.4172 72.3551 17.1672C72.179 16.9172 72.0909 16.6019 72.0909 16.2212V9.70984Z" fill="#3E4357"/>
<path d="M66.8121 17.9769C66.3973 17.9769 66.0209 17.8988 65.6829 17.7425C65.3448 17.5834 65.0763 17.3547 64.8775 17.0564C64.6786 16.7553 64.5792 16.3917 64.5792 15.9655C64.5792 15.5905 64.653 15.2866 64.8008 15.0536C64.9485 14.8178 65.1459 14.6332 65.3931 14.4996C65.6402 14.3661 65.913 14.2667 66.2113 14.2013C66.5124 14.1332 66.815 14.0792 67.1189 14.0394C67.5167 13.9883 67.8391 13.9499 68.0863 13.9243C68.3363 13.8959 68.5181 13.8491 68.6317 13.7837C68.7482 13.7184 68.8064 13.6047 68.8064 13.4428V13.4087C68.8064 12.9883 68.6914 12.6616 68.4613 12.4286C68.234 12.1957 67.8888 12.0792 67.4258 12.0792C66.9456 12.0792 66.5692 12.1843 66.2965 12.3945C66.0238 12.6047 65.832 12.8292 65.7212 13.0678L64.7667 12.7269C64.9371 12.3292 65.1644 12.0195 65.4485 11.7979C65.7354 11.5735 66.0479 11.4172 66.386 11.3292C66.7269 11.2383 67.0621 11.1928 67.3917 11.1928C67.6019 11.1928 67.8434 11.2184 68.1161 11.2695C68.3917 11.3178 68.6573 11.4187 68.913 11.5721C69.1715 11.7255 69.386 11.957 69.5564 12.2667C69.7269 12.5763 69.8121 12.9911 69.8121 13.511V17.8235H68.8064V16.9371H68.7553C68.6871 17.0792 68.5735 17.2312 68.4144 17.3931C68.2553 17.555 68.0437 17.6928 67.7794 17.8064C67.5152 17.9201 67.1928 17.9769 66.8121 17.9769ZM66.9655 17.0735C67.3633 17.0735 67.6985 16.9954 67.9712 16.8391C68.2468 16.6829 68.4542 16.4812 68.5934 16.234C68.7354 15.9868 68.8064 15.7269 68.8064 15.4542V14.5337C68.7638 14.5849 68.6701 14.6317 68.5252 14.6743C68.3831 14.7141 68.2184 14.7496 68.0309 14.7809C67.8462 14.8093 67.6658 14.8349 67.4897 14.8576C67.3164 14.8775 67.1758 14.8945 67.0678 14.9087C66.8064 14.9428 66.5621 14.9982 66.3348 15.0749C66.1104 15.1488 65.9286 15.261 65.7894 15.4116C65.653 15.5593 65.5848 15.761 65.5848 16.0167C65.5848 16.3661 65.7141 16.6303 65.9726 16.8093C66.234 16.9854 66.565 17.0735 66.9655 17.0735Z" fill="#3E4357"/>
<path d="M62.0703 11.8235C61.9766 11.5365 61.853 11.2794 61.6996 11.0522C61.549 10.822 61.3686 10.626 61.1584 10.4641C60.951 10.3022 60.7152 10.1786 60.451 10.0933C60.1868 10.0081 59.897 9.9655 59.5817 9.9655C59.0646 9.9655 58.5945 10.099 58.1712 10.3661C57.7479 10.6331 57.4112 11.0266 57.1612 11.5465C56.9112 12.0664 56.7862 12.7041 56.7862 13.4598C56.7862 14.2155 56.9126 14.8533 57.1655 15.3732C57.4183 15.8931 57.7606 16.2865 58.1925 16.5536C58.6243 16.8206 59.1101 16.9541 59.6499 16.9541C60.1499 16.9541 60.5902 16.8476 60.9709 16.6345C61.3544 16.4186 61.6527 16.1147 61.8658 15.7226C62.0817 15.3277 62.1896 14.8632 62.1896 14.3291L62.5135 14.3973H59.8885V13.4598H63.2124V14.3973C63.2124 15.1161 63.0589 15.7411 62.7521 16.2723C62.4481 16.8036 62.0277 17.2155 61.4908 17.5081C60.9567 17.7979 60.343 17.9428 59.6499 17.9428C58.8771 17.9428 58.1981 17.761 57.6129 17.3973C57.0305 17.0337 56.576 16.5166 56.2493 15.8462C55.9254 15.1757 55.7635 14.3803 55.7635 13.4598C55.7635 12.7695 55.8558 12.1487 56.0405 11.5976C56.228 11.0436 56.4922 10.572 56.8331 10.1828C57.174 9.79363 57.5774 9.49533 58.0433 9.28795C58.5092 9.08056 59.022 8.97687 59.5817 8.97687C60.0419 8.97687 60.4709 9.04647 60.8686 9.18567C61.2692 9.32204 61.6257 9.51664 61.9382 9.76948C62.2535 10.0195 62.5163 10.3192 62.7266 10.6686C62.9368 11.0152 63.0817 11.4002 63.1612 11.8235H62.0703Z" fill="#3E4357"/>
<path d="M46.5611 20.278C46.3906 20.278 46.2386 20.2638 46.1051 20.2354C45.9716 20.2098 45.8792 20.1843 45.8281 20.1587L46.0838 19.2723C46.3281 19.3348 46.544 19.3576 46.7315 19.3405C46.919 19.3235 47.0852 19.2397 47.2301 19.0891C47.3778 18.9414 47.5128 18.7013 47.6349 18.3689L47.8224 17.8576L45.402 11.278H46.4929L48.2997 16.4939H48.3679L50.1747 11.278H51.2656L48.4872 18.778C48.3622 19.1161 48.2074 19.3959 48.0227 19.6175C47.8381 19.8419 47.6236 20.0081 47.3792 20.1161C47.1378 20.224 46.865 20.278 46.5611 20.278Z" fill="#3E4357"/>
<path d="M44.4006 11.278V12.1303H41.0085V11.278H44.4006ZM41.9972 9.70984H43.0029V15.9485C43.0029 16.2326 43.0441 16.4456 43.1264 16.5877C43.2117 16.7269 43.3196 16.8206 43.4503 16.8689C43.5838 16.9144 43.7245 16.9371 43.8722 16.9371C43.983 16.9371 44.0739 16.9314 44.1449 16.9201C44.2159 16.9059 44.2728 16.8945 44.3154 16.886L44.5199 17.7894C44.4517 17.815 44.3566 17.8405 44.2344 17.8661C44.1122 17.8945 43.9574 17.9087 43.7699 17.9087C43.4858 17.9087 43.2074 17.8476 42.9347 17.7255C42.6648 17.6033 42.4404 17.4172 42.2614 17.1672C42.0852 16.9172 41.9972 16.6019 41.9972 16.2212V9.70984Z" fill="#3E4357"/>
<path d="M38.7063 17.8235V11.278H39.712V17.8235H38.7063ZM39.2177 10.1871C39.0217 10.1871 38.8526 10.1204 38.7106 9.98684C38.5714 9.85332 38.5018 9.6928 38.5018 9.5053C38.5018 9.3178 38.5714 9.15729 38.7106 9.02377C38.8526 8.89025 39.0217 8.82349 39.2177 8.82349C39.4137 8.82349 39.5813 8.89025 39.7205 9.02377C39.8626 9.15729 39.9336 9.3178 39.9336 9.5053C39.9336 9.6928 39.8626 9.85332 39.7205 9.98684C39.5813 10.1204 39.4137 10.1871 39.2177 10.1871Z" fill="#3E4357"/>
<path d="M36.8643 9.09619V17.8235H35.8586V9.09619H36.8643Z" fill="#3E4357"/>
<path d="M31.0231 17.9769C30.6083 17.9769 30.2319 17.8988 29.8938 17.7425C29.5557 17.5834 29.2873 17.3547 29.0884 17.0564C28.8895 16.7553 28.7901 16.3917 28.7901 15.9655C28.7901 15.5905 28.864 15.2866 29.0117 15.0536C29.1594 14.8178 29.3569 14.6332 29.604 14.4996C29.8512 14.3661 30.1239 14.2667 30.4222 14.2013C30.7233 14.1332 31.0259 14.0792 31.3299 14.0394C31.7276 13.9883 32.05 13.9499 32.2972 13.9243C32.5472 13.8959 32.729 13.8491 32.8427 13.7837C32.9591 13.7184 33.0174 13.6047 33.0174 13.4428V13.4087C33.0174 12.9883 32.9023 12.6616 32.6722 12.4286C32.4449 12.1957 32.0998 12.0792 31.6367 12.0792C31.1566 12.0792 30.7802 12.1843 30.5074 12.3945C30.2347 12.6047 30.0429 12.8292 29.9321 13.0678L28.9776 12.7269C29.1481 12.3292 29.3753 12.0195 29.6594 11.7979C29.9463 11.5735 30.2588 11.4172 30.5969 11.3292C30.9378 11.2383 31.2731 11.1928 31.6026 11.1928C31.8128 11.1928 32.0543 11.2184 32.327 11.2695C32.6026 11.3178 32.8682 11.4187 33.1239 11.5721C33.3824 11.7255 33.5969 11.957 33.7674 12.2667C33.9378 12.5763 34.0231 12.9911 34.0231 13.511V17.8235H33.0174V16.9371H32.9662C32.8981 17.0792 32.7844 17.2312 32.6253 17.3931C32.4662 17.555 32.2546 17.6928 31.9904 17.8064C31.7262 17.9201 31.4037 17.9769 31.0231 17.9769ZM31.1765 17.0735C31.5742 17.0735 31.9094 16.9954 32.1821 16.8391C32.4577 16.6829 32.6651 16.4812 32.8043 16.234C32.9463 15.9868 33.0174 15.7269 33.0174 15.4542V14.5337C32.9748 14.5849 32.881 14.6317 32.7361 14.6743C32.5941 14.7141 32.4293 14.7496 32.2418 14.7809C32.0571 14.8093 31.8767 14.8349 31.7006 14.8576C31.5273 14.8775 31.3867 14.8945 31.2787 14.9087C31.0174 14.9428 30.7731 14.9982 30.5458 15.0749C30.3214 15.1488 30.1395 15.261 30.0003 15.4116C29.864 15.5593 29.7958 15.761 29.7958 16.0167C29.7958 16.3661 29.925 16.6303 30.1836 16.8093C30.4449 16.9854 30.7759 17.0735 31.1765 17.0735Z" fill="#3E4357"/>
<path d="M26.2493 15.1473V11.278H27.2549V17.8235H26.2493V16.7155H26.1811C26.0277 17.0479 25.789 17.3306 25.4652 17.5635C25.1413 17.7936 24.7322 17.9087 24.2379 17.9087C23.8288 17.9087 23.4652 17.8192 23.147 17.6402C22.8288 17.4584 22.5788 17.1857 22.397 16.822C22.2152 16.4556 22.1243 15.9939 22.1243 15.4371V11.278H23.1299V15.3689C23.1299 15.8462 23.2635 16.2269 23.5305 16.511C23.8004 16.7951 24.1442 16.9371 24.5618 16.9371C24.8118 16.9371 25.066 16.8732 25.3246 16.7453C25.5859 16.6175 25.8047 16.4215 25.9808 16.1573C26.1598 15.8931 26.2493 15.5564 26.2493 15.1473Z" fill="#3E4357"/>
<path d="M16.2905 15.0962H17.4496L18.4212 16.3746L18.6768 16.7155L20.1257 18.6416H18.9666L18.0121 17.3632L17.7734 17.0394L16.2905 15.0962ZM20.4837 13.4598C20.4837 14.3803 20.3175 15.1757 19.9851 15.8462C19.6527 16.5166 19.1967 17.0337 18.6172 17.3973C18.0376 17.761 17.3757 17.9428 16.6314 17.9428C15.8871 17.9428 15.2251 17.761 14.6456 17.3973C14.066 17.0337 13.6101 16.5166 13.2777 15.8462C12.9453 15.1757 12.7791 14.3803 12.7791 13.4598C12.7791 12.5394 12.9453 11.7439 13.2777 11.0735C13.6101 10.403 14.066 9.88596 14.6456 9.52232C15.2251 9.15869 15.8871 8.97687 16.6314 8.97687C17.3757 8.97687 18.0376 9.15869 18.6172 9.52232C19.1967 9.88596 19.6527 10.403 19.9851 11.0735C20.3175 11.7439 20.4837 12.5394 20.4837 13.4598ZM19.4609 13.4598C19.4609 12.7041 19.3345 12.0664 19.0817 11.5465C18.8317 11.0266 18.4922 10.6331 18.0632 10.3661C17.6371 10.099 17.1598 9.9655 16.6314 9.9655C16.103 9.9655 15.6243 10.099 15.1953 10.3661C14.7692 10.6331 14.4297 11.0266 14.1768 11.5465C13.9268 12.0664 13.8018 12.7041 13.8018 13.4598C13.8018 14.2155 13.9268 14.8533 14.1768 15.3732C14.4297 15.8931 14.7692 16.2865 15.1953 16.5536C15.6243 16.8206 16.103 16.9541 16.6314 16.9541C17.1598 16.9541 17.6371 16.8206 18.0632 16.5536C18.4922 16.2865 18.8317 15.8931 19.0817 15.3732C19.3345 14.8533 19.4609 14.2155 19.4609 13.4598Z" fill="#3E4357"/>
<path fill-rule="evenodd" clip-rule="evenodd" d="M5.29616 70H88.7038C91.0211 70 93 68.0536 93 65.6128V5.38716C93 2.94636 91.0211 1 88.7038 1H5.29616C2.93777 1 1 2.98818 1 5.38716V65.6128C1 68.0536 2.97888 70 5.29616 70ZM5.29616 71H88.7038C91.5828 71 94 68.5965 94 65.6128V5.38716C94 2.4035 91.5828 0 88.7038 0H5.29616C2.3629 0 0 2.45875 0 5.38716V65.6128C0 68.5965 2.41722 71 5.29616 71Z" fill="#C5CDDF"/>
<path d="M29.1465 60.6078C28.7368 60.4295 28.4181 60.1753 28.1829 59.849C27.978 59.5607 27.8604 59.2269 27.8377 58.8513C27.8339 58.7717 27.9022 58.7034 27.9818 58.7034H28.5205C28.8392 58.7034 29.1503 58.8665 29.2868 59.151C29.3513 59.2876 29.4424 59.4052 29.5562 59.5114C29.7838 59.7239 30.11 59.8301 30.5236 59.8301C30.9371 59.8301 31.2899 59.7276 31.5289 59.519C31.7716 59.3103 31.8893 59.0448 31.8893 58.7148C31.8893 58.4606 31.8134 58.2519 31.6654 58.0926C31.5137 57.9333 31.3316 57.8081 31.1078 57.7208C30.8839 57.6336 30.5767 57.5387 30.1821 57.4363C29.6852 57.3035 29.283 57.1708 28.972 57.038C28.6609 56.9014 28.3991 56.6928 28.1791 56.4082C27.9591 56.1237 27.8491 55.7444 27.8491 55.2702C27.8491 54.8339 27.9591 54.4507 28.1791 54.1207C28.3991 53.7944 28.7026 53.5403 29.0972 53.3658C29.4917 53.1913 29.9469 53.104 30.4629 53.104C31.1988 53.104 31.802 53.2899 32.2724 53.6579C32.7049 53.9955 32.959 54.4469 33.0387 55.0122C33.0501 55.0956 32.9818 55.1715 32.8946 55.1715H31.7982C31.7261 55.1715 31.673 55.1184 31.6578 55.0501C31.6123 54.8263 31.4871 54.629 31.2823 54.4621C31.0433 54.2648 30.7246 54.1662 30.3301 54.1662C29.9735 54.1662 29.6814 54.2573 29.4538 54.4394C29.2261 54.6214 29.1161 54.8832 29.1161 55.2284C29.1161 55.4636 29.1882 55.6533 29.3286 55.8013C29.4689 55.9492 29.651 56.0706 29.8711 56.1579C30.0911 56.2451 30.387 56.34 30.7663 56.4424C31.2709 56.5827 31.6806 56.7193 31.9955 56.8597C32.3141 57 32.5835 57.2125 32.8035 57.5008C33.0273 57.7891 33.1373 58.1723 33.1373 58.6541C33.1373 59.041 33.0349 59.4052 32.8263 59.7466C32.6176 60.088 32.3141 60.365 31.9196 60.5736C31.5213 60.7823 31.0547 60.8847 30.5122 60.8847C30 60.8847 29.541 60.7937 29.1351 60.6154L29.1465 60.6078Z" fill="#25023F"/>
<path d="M35.5538 60.5091C35.0948 60.2511 34.7344 59.8869 34.4727 59.4165C34.2109 58.9461 34.0781 58.3998 34.0781 57.7815C34.0781 57.1631 34.2147 56.6244 34.484 56.1502C34.7534 55.676 35.1214 55.3118 35.588 55.0577C36.0546 54.8035 36.5781 54.6745 37.1509 54.6745C37.7238 54.6745 38.2473 54.8035 38.7139 55.0577C39.1805 55.3118 39.5485 55.676 39.8179 56.1502C40.0872 56.6244 40.2238 57.1669 40.2238 57.7815C40.2238 58.396 40.0834 58.9385 39.8065 59.4127C39.5295 59.8869 39.1502 60.2549 38.676 60.5129C38.198 60.7708 37.6707 60.8998 37.094 60.8998C36.5174 60.8998 36.0129 60.7708 35.55 60.5129L35.5538 60.5091ZM38.0007 59.5872C38.2814 59.4355 38.5091 59.2041 38.6836 58.8968C38.8581 58.5895 38.9453 58.2177 38.9453 57.7815C38.9453 57.3452 38.8619 56.9734 38.6949 56.6699C38.528 56.3664 38.3042 56.1388 38.0273 55.9871C37.7503 55.8353 37.4506 55.7557 37.1282 55.7557C36.8057 55.7557 36.5098 55.8316 36.2367 55.9871C35.9635 56.1388 35.7473 56.3664 35.5842 56.6699C35.4249 56.9734 35.3452 57.3414 35.3452 57.7815C35.3452 58.4302 35.5121 58.9309 35.8422 59.2837C36.1722 59.6365 36.5895 59.8148 37.094 59.8148C37.4165 59.8148 37.7162 59.739 37.9969 59.5834L38.0007 59.5872Z" fill="#25023F"/>
<path d="M48.2852 56.1502C48.5356 55.6836 48.8808 55.3194 49.3133 55.0614C49.7457 54.8035 50.2275 54.6745 50.751 54.6745C51.2252 54.6745 51.6387 54.7693 51.9915 54.9552C52.3444 55.1411 52.6289 55.3725 52.8375 55.6495V55.6267C52.8375 55.1563 53.2207 54.7731 53.6911 54.7731H53.9528C54.0325 54.7731 54.0932 54.8376 54.0932 54.9135V60.657C54.0932 60.7367 54.0287 60.7974 53.9528 60.7974H52.9779C52.8982 60.7974 52.8375 60.7329 52.8375 60.657V59.9021C52.6251 60.1866 52.3368 60.4218 51.9726 60.6115C51.6084 60.8012 51.1911 60.896 50.7245 60.896C50.2048 60.896 49.7306 60.7632 49.3019 60.4977C48.8732 60.2321 48.5318 59.8604 48.2776 59.3824C48.0272 58.9044 47.902 58.3619 47.902 57.7587C47.902 57.1555 48.0272 56.6168 48.2776 56.1502H48.2852ZM52.5834 56.6965C52.4126 56.3892 52.1888 56.1578 51.9119 55.9947C51.635 55.8353 51.3353 55.7557 51.0128 55.7557C50.6903 55.7557 50.3944 55.8353 50.1175 55.9909C49.8406 56.1464 49.6167 56.3778 49.446 56.6813C49.2753 56.9848 49.1881 57.3414 49.1881 57.7587C49.1881 58.176 49.2753 58.5402 49.446 58.8513C49.6167 59.1661 49.8444 59.4051 50.1251 59.5683C50.4058 59.7314 50.7017 59.8148 51.0166 59.8148C51.3315 59.8148 51.635 59.7352 51.9157 59.5758C52.1926 59.4165 52.4164 59.1813 52.5871 58.8702C52.7579 58.5592 52.8451 58.1988 52.8451 57.7815C52.8451 57.3642 52.7579 57.0038 52.5871 56.6965H52.5834Z" fill="#25023F"/>
<path d="M57.7958 54.9325C58.0613 54.7807 58.3724 54.6973 58.7252 54.6783C58.8049 54.6745 58.8732 54.7428 58.8732 54.8225V55.9643H58.5545C58.0651 55.9643 57.6972 56.0895 57.443 56.3361C57.1926 56.5827 57.0674 57.0152 57.0674 57.6259V60.657C57.0674 60.7367 57.0029 60.7974 56.9271 60.7974H55.9635C55.8838 60.7974 55.8231 60.7329 55.8231 60.657V54.9135C55.8231 54.8339 55.8876 54.7732 55.9635 54.7732H56.2139C56.6843 54.7732 57.0674 55.1563 57.0674 55.6267V55.6495C57.2495 55.3422 57.4923 55.1032 57.7958 54.9325Z" fill="#25023F"/>
<path d="M46.4795 55.8467C46.267 55.4598 45.9749 55.1677 45.5994 54.9704C45.2238 54.7731 44.7989 54.6745 44.3247 54.6745C44.283 54.6745 44.2412 54.6783 44.2033 54.6821C44.1995 54.6821 44.1957 54.6821 44.1881 54.6821C44.1692 54.6821 44.1502 54.6859 44.1312 54.6897C44.0819 54.6897 44.0364 54.6973 43.9871 54.7048C43.9529 54.7086 43.915 54.7162 43.8808 54.72C43.8202 54.7314 43.7632 54.7428 43.7063 54.758C43.695 54.758 43.6874 54.7618 43.676 54.7655C43.5242 54.8073 43.3839 54.8642 43.2549 54.9363C42.9514 55.107 42.7086 55.346 42.5265 55.6533V55.6305C42.5265 55.1601 42.1434 54.7769 41.673 54.7769H41.4226C41.3429 54.7769 41.2822 54.8414 41.2822 54.9173V60.6608C41.2822 60.7405 41.3467 60.8012 41.4226 60.8012H42.3862C42.4658 60.8012 42.5265 60.7367 42.5265 60.6608V57.6297C42.5265 57.6297 42.5265 57.6183 42.5265 57.6108V57.4325C42.5265 56.8938 42.6631 56.4803 42.9362 56.1919C43.2094 55.9036 43.5812 55.7595 44.0478 55.7595C44.5144 55.7595 44.8824 55.9036 45.1517 56.1919C45.4211 56.4803 45.5576 56.8938 45.5576 57.4325V60.657C45.5576 60.7367 45.6221 60.7974 45.698 60.7974H46.6502C46.7299 60.7974 46.7905 60.7329 46.7905 60.657V57.2428C46.7905 56.6965 46.6843 56.2299 46.4719 55.8429L46.4795 55.8467Z" fill="#25023F"/>
<path d="M66.1721 62.0797L64.9278 60.733C64.6016 60.8278 64.2374 60.8733 63.8466 60.8733C63.141 60.8733 62.4885 60.7064 61.8929 60.3764C61.2973 60.0463 60.8269 59.5835 60.4817 58.9879C60.1365 58.3923 59.962 57.7246 59.962 56.9811C59.962 56.2375 60.1365 55.5699 60.4817 54.9781C60.8269 54.3863 61.2973 53.9272 61.8929 53.5934C62.4885 53.2634 63.1372 53.0964 63.8466 53.0964C64.556 53.0964 65.2161 53.2634 65.8117 53.5934C66.4073 53.9234 66.8739 54.3863 67.2191 54.9781C67.5606 55.5699 67.7313 56.2375 67.7313 56.9811C67.7313 57.6829 67.5795 58.3126 67.2761 58.8779C66.9726 59.4431 66.5553 59.8984 66.0242 60.2398L66.5325 60.7975C66.8625 61.1616 66.8208 61.7307 66.4339 62.038L66.3656 62.0911C66.3087 62.1366 66.2214 62.1328 66.1721 62.0759V62.0797ZM61.5743 58.4644C61.7981 58.8893 62.1054 59.2193 62.4999 59.4507C62.8944 59.6821 63.3421 59.7959 63.8466 59.7959C64.3512 59.7959 64.7988 59.6821 65.1934 59.4507C65.5879 59.2193 65.8952 58.8931 66.119 58.4644C66.3428 58.0395 66.4528 57.5425 66.4528 56.9811C66.4528 56.4196 66.3428 55.9265 66.119 55.5054C65.8952 55.0843 65.5879 54.758 65.1934 54.5304C64.7988 54.3028 64.3512 54.1928 63.8466 54.1928C63.3421 54.1928 62.8944 54.3066 62.4999 54.5304C62.1054 54.758 61.7981 55.0805 61.5743 55.5054C61.3504 55.9303 61.2404 56.4196 61.2404 56.9811C61.2404 57.5425 61.3504 58.0357 61.5743 58.4644Z" fill="#126ED3"/>
<path d="M74.4953 55.6268V60.6571C74.4953 60.7368 74.4308 60.7975 74.3549 60.7975H73.3913C73.3117 60.7975 73.251 60.733 73.251 60.6571V60.0881C73.0537 60.3346 72.7957 60.5319 72.4809 60.6723C72.166 60.8126 71.8246 60.8847 71.468 60.8847C70.9938 60.8847 70.5689 60.7861 70.1933 60.5888C69.8177 60.3915 69.5218 60.0994 69.3056 59.7125C69.0894 59.3255 68.9832 58.8589 68.9832 58.3126V54.9098C68.9832 54.8301 69.0476 54.7694 69.1235 54.7694H69.3625C69.8329 54.7694 70.2161 55.1526 70.2161 55.623V58.1268C70.2161 58.6654 70.3526 59.079 70.622 59.3673C70.8913 59.6556 71.2593 59.7997 71.7259 59.7997C72.1925 59.7997 72.5643 59.6556 72.8375 59.3673C73.1106 59.079 73.2472 58.6654 73.2472 58.1268V54.9098C73.2472 54.8301 73.3117 54.7694 73.3875 54.7694H73.6379C74.1083 54.7694 74.4915 55.1526 74.4915 55.623L74.4953 55.6268Z" fill="#126ED3"/>
<path d="M78.012 54.9552C78.3799 54.7694 78.7897 54.6745 79.2411 54.6745C79.7722 54.6745 80.254 54.8035 80.6827 55.0577C81.1113 55.3118 81.4528 55.676 81.6994 56.1464C81.9459 56.6168 82.0711 57.1555 82.0711 57.7587C82.0711 58.3619 81.9459 58.9044 81.6994 59.3824C81.4528 59.8604 81.1113 60.2322 80.6789 60.4977C80.2464 60.7633 79.7646 60.896 79.2411 60.896C78.7745 60.896 78.361 60.805 78.0006 60.6229C77.6402 60.4408 77.3519 60.2056 77.1432 59.9211V60.6532C77.1432 60.7329 77.0787 60.7936 77.0029 60.7936H76.0393C75.9596 60.7936 75.8989 60.7291 75.8989 60.6532V52.8422C75.8989 52.7625 75.9634 52.7018 76.0393 52.7018H76.2897C76.7601 52.7018 77.1432 53.085 77.1432 53.5554V55.6647C77.3557 55.3725 77.644 55.1335 78.012 54.9477V54.9552ZM80.5499 56.6813C80.3792 56.3779 80.1516 56.1502 79.8708 55.9909C79.5901 55.8354 79.2904 55.7557 78.968 55.7557C78.6455 55.7557 78.3572 55.8354 78.0765 55.9947C77.7957 56.154 77.5681 56.3892 77.3974 56.6965C77.2267 57.0038 77.1394 57.3642 77.1394 57.7815C77.1394 58.1988 77.2267 58.5592 77.3974 58.8703C77.5681 59.1813 77.7957 59.4165 78.0765 59.5759C78.3572 59.7352 78.6531 59.8149 78.968 59.8149C79.2828 59.8149 79.5901 59.7314 79.8708 59.5683C80.1516 59.4052 80.3792 59.1662 80.5499 58.8513C80.7206 58.5364 80.8079 58.1722 80.8079 57.7587C80.8079 57.3452 80.7206 56.9848 80.5499 56.6813Z" fill="#126ED3"/>
<path d="M88.7403 58.2519H84.26C84.298 58.7337 84.4763 59.1207 84.7949 59.4128C85.1174 59.7049 85.5081 59.849 85.9747 59.849C86.6159 59.849 87.0749 59.5949 87.3594 59.0827C87.386 59.0372 87.4315 59.0069 87.4808 59.0069H88.7441C88.562 59.5607 88.2319 60.016 87.7539 60.3688C87.276 60.7216 86.6841 60.8999 85.9785 60.8999C85.4019 60.8999 84.886 60.7709 84.4307 60.5129C83.9755 60.255 83.6189 59.8908 83.3609 59.4204C83.103 58.9499 82.974 58.4037 82.974 57.7853C82.974 57.167 83.0992 56.6207 83.3496 56.1503C83.5999 55.6799 83.9565 55.3157 84.4118 55.0615C84.867 54.8073 85.3905 54.6783 85.9823 54.6783C86.5741 54.6783 87.0597 54.8035 87.5036 55.0501C87.9474 55.2967 88.2964 55.6457 88.543 56.0934C88.7896 56.541 88.9148 57.0569 88.9148 57.6412C88.9148 57.8195 88.9072 57.9826 88.8882 58.1305C88.8807 58.2026 88.8162 58.2519 88.7479 58.2519H88.7403ZM87.6098 57.2466C87.6022 56.7876 87.4391 56.4196 87.1166 56.1427C86.7942 55.8657 86.3996 55.7254 85.9254 55.7254C85.4967 55.7254 85.1288 55.862 84.8215 56.1351C84.5142 56.4082 84.3321 56.78 84.2752 57.2466H87.6098Z" fill="#126ED3"/>
<path d="M16.7489 53.6693C16.214 53.1457 15.5122 52.8612 14.7611 52.8688C14.4159 52.8688 14.1389 53.1533 14.1427 53.4985C14.1427 53.84 14.4235 54.1169 14.7687 54.1169C14.7763 54.1169 14.7839 54.1169 14.7877 54.1169C15.6374 54.1169 16.3317 54.8035 16.3392 55.6533C16.3392 55.9947 16.62 56.2717 16.9652 56.2717H16.9728C17.318 56.2717 17.5949 55.9871 17.5911 55.6419C17.5835 54.8946 17.2876 54.1928 16.7527 53.6693H16.7489Z" fill="#336CCB"/>
<path d="M14.8597 49.0828C14.8825 49.0828 14.9053 49.0828 14.928 49.0828C18.145 49.0828 20.9029 51.4651 21.3582 54.6518C21.4037 54.9629 21.6693 55.1905 21.9765 55.1905C22.0069 55.1905 22.0372 55.1905 22.0676 55.1829C22.409 55.1336 22.648 54.8187 22.5987 54.4735C22.0562 50.6723 18.7671 47.8309 14.9318 47.8309C14.909 47.8309 14.8825 47.8309 14.8597 47.8309C14.5145 47.8309 14.2376 48.1154 14.2414 48.4606C14.2414 48.802 14.5221 49.079 14.8673 49.079L14.8597 49.0828Z" fill="#126ED3"/>
<path d="M20.1367 56.0706C20.1936 54.5797 19.6587 53.0698 18.5244 51.9355C16.362 49.7732 12.8415 49.7732 10.6792 51.9355C9.56766 53.0471 8.99862 54.5418 9.0669 56.0933C8.14126 56.3323 7.26114 56.8065 6.53656 57.5311C4.37421 59.6935 4.37421 63.214 6.53656 65.3763C7.61774 66.4575 9.04034 67 10.4592 67C11.878 67 13.3006 66.4575 14.3817 65.3763C14.469 65.2891 14.5487 65.1942 14.6321 65.0994C15.6488 66.2602 17.1397 67 18.8013 67C21.859 67 24.3476 64.5114 24.3476 61.4537C24.3476 58.9006 22.5721 56.6738 20.1367 56.0706ZM18.8013 65.7519C16.4341 65.7519 14.5031 63.8247 14.5031 61.4537C14.5031 61.1085 14.2224 60.8278 13.8772 60.8278C13.532 60.8278 13.2513 61.1085 13.2513 61.4537C13.2513 62.3832 13.4827 63.2595 13.8886 64.0296C13.7672 64.1927 13.6382 64.3482 13.494 64.4924C11.8173 66.1692 9.09346 66.1692 7.41668 64.4924C5.7399 62.8156 5.7399 60.0918 7.41668 58.415C9.08966 56.7421 11.8173 56.7383 13.494 58.415C13.7368 58.6578 14.1352 58.6578 14.378 58.415C14.6207 58.1722 14.6207 57.7739 14.378 57.5311C13.2588 56.412 11.7717 55.8771 10.3036 55.915C10.2846 54.758 10.7285 53.6465 11.5631 52.8157C13.2399 51.1389 15.9637 51.1389 17.6405 52.8157C19.3172 54.4924 19.3172 57.2163 17.6405 58.893C17.3977 59.1358 17.3977 59.5341 17.6405 59.7769C17.7619 59.8983 17.9212 59.959 18.0843 59.959C18.2474 59.959 18.403 59.8983 18.5282 59.7769C19.2338 59.0713 19.708 58.2178 19.9508 57.3149C21.7793 57.8232 23.0995 59.5152 23.0995 61.4499C23.0995 63.8171 21.1723 65.7481 18.8013 65.7481V65.7519Z" fill="#126ED3"/>
<path d="M25 30.5C25 28.2909 26.7909 26.5 29 26.5H63.3278C65.5369 26.5 67.3278 28.2909 67.3278 30.5V40.5C67.3278 42.7091 65.5369 44.5 63.3278 44.5H29C26.7909 44.5 25 42.7091 25 40.5V30.5Z" fill="#689A30"/>
<path d="M59.1871 34.9823L57.7809 35.1357C57.7411 34.9936 57.6715 34.8601 57.5721 34.7351C57.4755 34.6101 57.3448 34.5093 57.18 34.4326C57.0153 34.3559 56.8135 34.3175 56.5749 34.3175C56.2539 34.3175 55.984 34.3871 55.7653 34.5263C55.5493 34.6655 55.4428 34.8459 55.4457 35.0675C55.4428 35.2578 55.5124 35.4127 55.6545 35.532C55.7993 35.6513 56.038 35.7493 56.3704 35.826L57.4868 36.0647C58.1062 36.1982 58.5664 36.4098 58.8675 36.6996C59.1715 36.9894 59.3249 37.3686 59.3278 37.8374C59.3249 38.2493 59.2042 38.613 58.9655 38.9283C58.7297 39.2408 58.4016 39.4851 57.9812 39.6612C57.5607 39.8374 57.0778 39.9255 56.5323 39.9255C55.7312 39.9255 55.0863 39.7578 54.5976 39.4226C54.109 39.0845 53.8178 38.6144 53.7241 38.0121L55.2283 37.8672C55.2965 38.1627 55.4414 38.3857 55.663 38.5362C55.8846 38.6868 56.1729 38.7621 56.528 38.7621C56.8945 38.7621 57.1885 38.6868 57.4101 38.5362C57.6346 38.3857 57.7468 38.1996 57.7468 37.978C57.7468 37.7905 57.6743 37.6357 57.5295 37.5135C57.3874 37.3914 57.1658 37.2976 56.8647 37.2323L55.7482 36.9979C55.1204 36.8672 54.6559 36.647 54.3547 36.3374C54.0536 36.0249 53.9045 35.63 53.9073 35.1527C53.9045 34.7493 54.0138 34.3999 54.2354 34.1044C54.4599 33.8061 54.7709 33.576 55.1687 33.4141C55.5692 33.2493 56.0309 33.1669 56.5536 33.1669C57.3207 33.1669 57.9243 33.3303 58.3647 33.657C58.8079 33.9837 59.082 34.4255 59.1871 34.9823Z" fill="white"/>
<path d="M52.6012 34.9823L51.1949 35.1357C51.1552 34.9936 51.0856 34.8601 50.9861 34.7351C50.8895 34.6101 50.7589 34.5093 50.5941 34.4326C50.4293 34.3559 50.2276 34.3175 49.989 34.3175C49.668 34.3175 49.3981 34.3871 49.1793 34.5263C48.9634 34.6655 48.8569 34.8459 48.8597 35.0675C48.8569 35.2578 48.9265 35.4127 49.0685 35.532C49.2134 35.6513 49.452 35.7493 49.7844 35.826L50.9009 36.0647C51.5202 36.1982 51.9805 36.4098 52.2816 36.6996C52.5856 36.9894 52.739 37.3686 52.7418 37.8374C52.739 38.2493 52.6182 38.613 52.3796 38.9283C52.1438 39.2408 51.8157 39.4851 51.3952 39.6612C50.9748 39.8374 50.4918 39.9255 49.9464 39.9255C49.1452 39.9255 48.5003 39.7578 48.0117 39.4226C47.5231 39.0845 47.2319 38.6144 47.1381 38.0121L48.6424 37.8672C48.7106 38.1627 48.8555 38.3857 49.077 38.5362C49.2986 38.6868 49.587 38.7621 49.9421 38.7621C50.3086 38.7621 50.6026 38.6868 50.8242 38.5362C51.0486 38.3857 51.1608 38.1996 51.1608 37.978C51.1608 37.7905 51.0884 37.6357 50.9435 37.5135C50.8015 37.3914 50.5799 37.2976 50.2787 37.2323L49.1623 36.9979C48.5344 36.8672 48.0699 36.647 47.7688 36.3374C47.4677 36.0249 47.3185 35.63 47.3214 35.1527C47.3185 34.7493 47.4279 34.3999 47.6495 34.1044C47.8739 33.8061 48.185 33.576 48.5827 33.4141C48.9833 33.2493 49.4449 33.1669 49.9677 33.1669C50.7347 33.1669 51.3384 33.3303 51.7787 33.657C52.2219 33.9837 52.4961 34.4255 52.6012 34.9823Z" fill="white"/>
<path d="M42.4208 39.9297C42.006 39.9297 41.6325 39.8559 41.3001 39.7081C40.9705 39.5576 40.7092 39.336 40.516 39.0434C40.3256 38.7507 40.2305 38.3899 40.2305 37.961C40.2305 37.5916 40.2987 37.2862 40.435 37.0448C40.5714 36.8033 40.7575 36.6101 40.9933 36.4652C41.229 36.3203 41.4947 36.211 41.7901 36.1371C42.0884 36.0604 42.3967 36.005 42.7148 35.9709C43.0984 35.9311 43.4094 35.8956 43.6481 35.8644C43.8867 35.8303 44.06 35.7791 44.168 35.711C44.2788 35.6399 44.3342 35.5306 44.3342 35.3828V35.3573C44.3342 35.0362 44.239 34.7877 44.0487 34.6115C43.8583 34.4354 43.5842 34.3473 43.2262 34.3473C42.8484 34.3473 42.5487 34.4297 42.3271 34.5945C42.1083 34.7593 41.9606 34.9539 41.8839 35.1783L40.4435 34.9737C40.5572 34.576 40.7447 34.2436 41.006 33.9766C41.2674 33.7067 41.587 33.505 41.9648 33.3715C42.3427 33.2351 42.7603 33.1669 43.2177 33.1669C43.533 33.1669 43.8469 33.2039 44.1594 33.2777C44.4719 33.3516 44.7575 33.4737 45.016 33.6442C45.2745 33.8118 45.4819 34.0405 45.6381 34.3303C45.7972 34.6201 45.8768 34.9823 45.8768 35.4169V39.7976H44.3938V38.8985H44.3427C44.2489 39.0803 44.1168 39.2507 43.9464 39.4098C43.7788 39.5661 43.5671 39.6925 43.3114 39.7891C43.0586 39.8828 42.7617 39.9297 42.4208 39.9297ZM42.8214 38.7962C43.131 38.7962 43.3995 38.7351 43.6268 38.613C43.854 38.488 44.0288 38.3232 44.1509 38.1186C44.2759 37.9141 44.3384 37.6911 44.3384 37.4496V36.6783C44.2901 36.7181 44.2077 36.755 44.0913 36.7891C43.9776 36.8232 43.8498 36.853 43.7077 36.8786C43.5657 36.9041 43.4251 36.9269 43.2859 36.9468C43.1467 36.9666 43.0259 36.9837 42.9237 36.9979C42.6935 37.0291 42.4876 37.0803 42.3058 37.1513C42.1239 37.2223 41.9805 37.3218 41.8754 37.4496C41.7702 37.5746 41.7177 37.7365 41.7177 37.9354C41.7177 38.2195 41.8214 38.434 42.0288 38.5789C42.2362 38.7237 42.5004 38.7962 42.8214 38.7962Z" fill="white"/>
<path d="M33 39.7976V31.0703H36.2727C36.9432 31.0703 37.5057 31.1953 37.9602 31.4453C38.4176 31.6953 38.7628 32.0391 38.9957 32.4766C39.2315 32.9112 39.3494 33.4055 39.3494 33.9595C39.3494 34.5192 39.2315 35.0163 38.9957 35.451C38.7599 35.8857 38.4119 36.228 37.9517 36.478C37.4915 36.7251 36.9247 36.8487 36.2514 36.8487H34.0824V35.549H36.0384C36.4304 35.549 36.7514 35.4808 37.0014 35.3445C37.2514 35.2081 37.4361 35.0206 37.5554 34.782C37.6776 34.5433 37.7386 34.2692 37.7386 33.9595C37.7386 33.6499 37.6776 33.3771 37.5554 33.1413C37.4361 32.9055 37.25 32.7223 36.9972 32.5916C36.7472 32.4581 36.4247 32.3913 36.0298 32.3913H34.581V39.7976H33Z" fill="white"/>
</g>
<defs>
<clipPath id="clip0_2186_895">
<rect width="94" height="71" fill="white"/>
</clipPath>
</defs>
</svg>
