<svg class="logo-mark" height="48" viewbox="0 0 64 48" width="64" xmlns="http://www.w3.org/2000/svg"><style>
    .logomark .aqua { fill: #55b4c8; }
    .logomark .orange { fill: #ff8c00; }
    .logomark .red { fill: #f00; }
    .logomark .grey { fill: #b4bebe; }
  </style><rect class="aqua right-1" height="8" width="7" x="51" y="10" /><path class="aqua right-1" d="M58,10l-17,0l-8,8l25,0l0,-8Z" /><rect class="orange right-2" height="8" width="7" x="36" y="22" /><path class="orange right-2" d="M43,30l0,-7.995l-14,-0l-8.008,7.995l22.008,0Z" /><rect class="red right-3" height="8" width="7" x="24" y="34" /><path class="red right-3" d="M13,38.01l4,-4.01l14,0l0,8l-18,0l0,-3.99Z" /><rect class="grey left-1" height="8" width="7" x="11" y="6" /><path class="grey left-1" d="M41,10l-4,4l-26,0l0,-8l30,0l0,4Z" /><rect class="grey left-2" height="8" width="7" x="16" y="18" /><path class="grey left-2" d="M16,26l9,0l8,-8l-17,-0l0,8Z" /><rect class="grey left-3" height="8" width="7" x="6" y="30" /><path class="grey left-3" d="M6,37.988l7,0.012l7.992,-8l-14.992,-0.047l-0,8.035Z" /></svg>